<?xml version="1.0" encoding="UTF-8"?>
<!DOCTYPE svg PUBLIC "-//W3C//DTD SVG 1.1//EN" "http://www.w3.org/Graphics/SVG/1.1/DTD/svg11.dtd">
<svg xmlns="http://www.w3.org/2000/svg" version="1.1" width="2310px" height="916px" style="shape-rendering:geometricPrecision; text-rendering:geometricPrecision; image-rendering:optimizeQuality; fill-rule:evenodd; clip-rule:evenodd" xmlns:xlink="http://www.w3.org/1999/xlink">
<g><path style="opacity:0.996" fill="#010101" d="M 293.5,-0.5 C 295.833,-0.5 298.167,-0.5 300.5,-0.5C 309.698,3.27696 319.031,6.94362 328.5,10.5C 330.715,12.5737 333.215,12.9071 336,11.5C 336.49,12.7932 336.657,14.1266 336.5,15.5C 338.927,15.523 341.26,16.023 343.5,17C 356.759,23.1367 370.092,28.9701 383.5,34.5C 386.606,36.1241 389.939,37.4575 393.5,38.5C 394.554,38.3201 395.554,37.9867 396.5,37.5C 397.604,38.6313 397.271,39.4646 395.5,40C 408.145,44.765 420.478,50.0983 432.5,56C 436.167,57 439.833,58 443.5,59C 442.833,59.3333 442.167,59.6667 441.5,60C 449.98,62.495 458.146,65.6616 466,69.5C 466.333,69.1667 466.667,68.8333 467,68.5C 467.483,69.448 467.649,70.448 467.5,71.5C 471.693,71.9526 475.693,73.1192 479.5,75C 501.664,84.803 522.997,94.1364 543.5,103C 559.279,109.389 574.946,116.056 590.5,123C 592.336,126.256 595.003,128.589 598.5,130C 597.978,130.561 597.645,131.228 597.5,132C 598.329,136.3 598.996,140.634 599.5,145C 598.545,187.903 598.545,230.236 599.5,272C 599.046,277.632 597.88,283.132 596,288.5C 593.913,289.834 592.413,291.667 591.5,294C 590.167,294.667 588.833,295.333 587.5,296C 587.833,296.333 588.167,296.667 588.5,297C 584.037,298.838 579.037,299.671 573.5,299.5C 560.902,299.953 552.402,294.286 548,282.5C 547.682,278.805 547.182,275.138 546.5,271.5C 547.652,238.856 547.819,206.19 547,173.5C 526.594,183.619 506.094,193.619 485.5,203.5C 485.571,217.881 486.904,232.214 489.5,246.5C 487.802,257.178 481.802,261.011 471.5,258C 389.258,210.14 301.591,197.807 208.5,221C 205.577,221.848 203.077,223.348 201,225.5C 200.667,224.833 200.333,224.167 200,223.5C 197.263,224.56 194.43,225.394 191.5,226C 189.287,227.616 186.953,228.783 184.5,229.5C 175.145,232.416 166.145,236.082 157.5,240.5C 146.379,245.71 135.379,251.21 124.5,257C 123.167,257.667 121.833,257.667 120.5,257C 116.811,255.487 113.145,253.987 109.5,252.5C 109.495,249.468 109.162,246.468 108.5,243.5C 110.569,232.464 111.902,221.298 112.5,210C 112.371,208.019 111.704,206.353 110.5,205C 110.957,204.586 111.291,204.086 111.5,203.5C 109.771,202.403 108.104,201.237 106.5,200C 92.3237,193.617 77.9904,187.451 63.5,181.5C 46.2258,173.482 28.0591,165.148 9,156.5C 6.65932,154.831 4.32599,153.164 2,151.5C 1.62638,149.509 0.793048,147.842 -0.5,146.5C -0.5,141.833 -0.5,137.167 -0.5,132.5C 0.350931,130.29 1.68426,128.29 3.5,126.5C 9.1446,121.87 15.1446,118.704 21.5,117C 69.6658,95.2673 118.333,73.9339 167.5,53C 167.93,52.0805 168.264,51.2472 168.5,50.5C 171.2,51.6668 173.867,51.5001 176.5,50C 175.134,47.5615 175.634,47.0615 178,48.5C 182.756,47.6363 186.422,45.3029 189,41.5C 192.041,42.5036 195.041,42.1703 198,40.5C 201.866,37.9837 206.033,36.1504 210.5,35C 211.126,34.2496 211.626,33.4162 212,32.5C 212.333,32.8333 212.667,33.1667 213,33.5C 216.073,32.1416 219.24,30.9749 222.5,30C 221.376,29.7508 220.376,29.2508 219.5,28.5C 227.615,27.5423 235.281,24.8756 242.5,20.5C 258.994,13.7471 275.994,6.74715 293.5,-0.5 Z"/></g>
<g><path style="opacity:0.004" fill="#000000" d="M 328.5,10.5 C 328.897,9.47498 329.563,9.30831 330.5,10C 329.906,10.4643 329.239,10.631 328.5,10.5 Z"/></g>
<g><path style="opacity:0.004" fill="#000000" d="M 242.5,20.5 C 241.833,19.1667 241.833,19.1667 242.5,20.5 Z"/></g>
<g><path style="opacity:0.004" fill="#000000" d="M 209.5,28.5 C 210.833,29.1667 210.833,29.1667 209.5,28.5 Z"/></g>
<g><path style="opacity:0.004" fill="#000000" d="M 383.5,33.5 C 384.833,34.1667 384.833,34.1667 383.5,33.5 Z"/></g>
<g><path style="opacity:0.006" fill="#000000" d="M 150.5,57.5 C 151.525,57.8966 151.692,58.5632 151,59.5C 150.536,58.9056 150.369,58.2389 150.5,57.5 Z"/></g>
<g><path style="opacity:0.006" fill="#000000" d="M 98.5,80.5 C 98.8966,79.475 99.5632,79.3083 100.5,80C 99.9056,80.4643 99.2389,80.631 98.5,80.5 Z"/></g>
<g><path style="opacity:0.006" fill="#000000" d="M 493.5,80.5 C 493.897,79.475 494.563,79.3083 495.5,80C 494.906,80.4643 494.239,80.631 493.5,80.5 Z"/></g>
<g><path style="opacity:0.004" fill="#000000" d="M 79.5,89.5 C 80.8333,90.1667 80.8333,90.1667 79.5,89.5 Z"/></g>
<g><path style="opacity:0.004" fill="#000000" d="M 527.5,93.5 C 528.833,94.1667 528.833,94.1667 527.5,93.5 Z"/></g>
<g><path style="opacity:0.004" fill="#000000" d="M 544.5,101.5 C 545.833,102.167 545.833,102.167 544.5,101.5 Z"/></g>
<g><path style="opacity:0.004" fill="#000000" d="M 19.5,109.5 C 20.8333,110.167 20.8333,110.167 19.5,109.5 Z"/></g>
<g><path style="opacity:0.004" fill="#000000" d="M 8.5,120.5 C 9.83333,121.167 9.83333,121.167 8.5,120.5 Z"/></g>
<g><path style="opacity:0.004" fill="#000000" d="M 63.5,181.5 C 63.1034,182.525 62.4368,182.692 61.5,182C 62.0944,181.536 62.7611,181.369 63.5,181.5 Z"/></g>
<g><path style="opacity:0.004" fill="#000000" d="M 109.5,211.5 C 110.833,212.167 110.833,212.167 109.5,211.5 Z"/></g>
<g><path style="opacity:0.004" fill="#000000" d="M 266.5,212.5 C 266.897,211.475 267.563,211.308 268.5,212C 267.906,212.464 267.239,212.631 266.5,212.5 Z"/></g>
<g><path style="opacity:0.004" fill="#000000" d="M 270.5,211.5 C 271.833,212.167 271.833,212.167 270.5,211.5 Z"/></g>
<g><path style="opacity:0.004" fill="#000000" d="M 326.5,211.5 C 327.833,212.167 327.833,212.167 326.5,211.5 Z"/></g>
<g><path style="opacity:0.004" fill="#000000" d="M 231.5,216.5 C 232.833,217.167 232.833,217.167 231.5,216.5 Z"/></g>
<g><path style="opacity:0.005" fill="#000000" d="M 360.5,217.5 C 361.077,216.227 361.743,216.227 362.5,217.5C 362.03,218.463 361.363,218.463 360.5,217.5 Z"/></g>
<g><path style="opacity:0.004" fill="#000000" d="M 109.5,220.5 C 110.833,221.167 110.833,221.167 109.5,220.5 Z"/></g>
<g><path style="opacity:0.004" fill="#000000" d="M 197.5,226.5 C 197.897,225.475 198.563,225.308 199.5,226C 198.906,226.464 198.239,226.631 197.5,226.5 Z"/></g>
<g><path style="opacity:0.004" fill="#000000" d="M 184.5,229.5 C 185.833,230.167 185.833,230.167 184.5,229.5 Z"/></g>
<g><path style="opacity:0.004" fill="#000000" d="M 421.5,234.5 C 422.833,235.167 422.833,235.167 421.5,234.5 Z"/></g>
<g><path style="opacity:0.004" fill="#000000" d="M 157.5,240.5 C 158.239,240.369 158.906,240.536 159.5,241C 158.563,241.692 157.897,241.525 157.5,240.5 Z"/></g>
<g><path style="opacity:0.004" fill="#000000" d="M 155.5,241.5 C 156.833,242.167 156.833,242.167 155.5,241.5 Z"/></g>
<g><path style="opacity:0.004" fill="#000000" d="M 285.5,242.5 C 286.833,243.167 286.833,243.167 285.5,242.5 Z"/></g>
<g><path style="opacity:0.997" fill="#010101" d="M 401.5,261.5 C 402.623,262.757 403.289,262.424 403.5,260.5C 405.745,260.541 406.412,261.375 405.5,263C 440.219,276.665 471.552,295.665 499.5,320C 509.147,329.297 518.481,338.797 527.5,348.5C 530.006,353.172 533.673,356.672 538.5,359C 537.833,359.333 537.167,359.667 536.5,360C 540.445,364.865 544.112,369.698 547.5,374.5C 551.371,381.39 555.704,388.057 560.5,394.5C 566.264,405.889 571.931,417.222 577.5,428.5C 598.375,480.197 604.542,533.864 596,589.5C 595.579,594.393 594.412,599.06 592.5,603.5C 593.311,604.216 593.978,605.05 594.5,606C 593.527,606.349 592.694,607.182 592,608.5C 586.308,635.428 576.808,660.762 563.5,684.5C 547.704,714.048 527.537,740.382 503,763.5C 502.517,764.448 502.351,765.448 502.5,766.5C 503.552,766.351 504.552,766.517 505.5,767C 510.395,772.064 515.395,776.897 520.5,781.5C 545.227,806.396 570.394,830.729 596,854.5C 600.575,863.179 600.575,871.845 596,880.5C 584.191,892.478 572.358,904.144 560.5,915.5C 553.833,915.5 547.167,915.5 540.5,915.5C 536.753,912.257 533.086,908.757 529.5,905C 528.552,904.517 527.552,904.351 526.5,904.5C 525.29,901.613 523.29,899.28 520.5,897.5C 507.839,885.173 495.173,872.839 482.5,860.5C 465.722,844.469 448.722,827.969 431.5,811C 430.552,810.517 429.552,810.351 428.5,810.5C 426.616,805.946 423.616,802.28 419.5,799.5C 407.066,787.005 394.399,774.672 381.5,762.5C 375.923,751.233 378.59,742.566 389.5,736.5C 390.086,736.709 390.586,737.043 391,737.5C 436.508,713.313 470.841,677.646 494,630.5C 512.853,585.522 516.019,540.188 503.5,494.5C 504.833,493.5 504.833,492.5 503.5,491.5C 502.972,490.279 502.305,489.113 501.5,488C 502.28,486.927 502.113,485.76 501,484.5C 500.667,484.833 500.333,485.167 500,485.5C 498.4,482.891 498.234,480.224 499.5,477.5C 497.514,474.044 496.014,470.378 495,466.5C 493.401,464.944 491.901,463.277 490.5,461.5C 491.589,458.891 491.255,456.391 489.5,454C 487.436,451.482 485.936,448.648 485,445.5C 483.844,446.993 483.01,446.826 482.5,445C 483.943,442.922 483.276,442.089 480.5,442.5C 480.167,441.167 479.833,439.833 479.5,438.5C 480.043,438.44 480.376,438.107 480.5,437.5C 441.067,376.088 385.067,341.921 312.5,335C 232.696,331.97 169.863,362.47 124,426.5C 83.2844,493.733 78.4511,563.567 109.5,636C 127.681,672.016 153.514,701.849 187,725.5C 193.921,718.156 200.921,711.822 208,706.5C 208.635,705.034 209.469,703.7 210.5,702.5C 208.98,699.845 209.48,699.178 212,700.5C 216.775,698.558 219.942,695.225 221.5,690.5C 223.783,690.392 225.783,689.559 227.5,688C 231.362,684.799 234.528,680.966 237,676.5C 237.333,676.833 237.667,677.167 238,677.5C 242.493,672.5 246.993,668.334 251.5,665C 256.383,660.298 260.716,655.798 264.5,651.5C 272.891,645.066 280.725,638.066 288,630.5C 288.492,629.451 288.326,628.451 287.5,627.5C 289.078,626.702 290.744,626.202 292.5,626C 300.022,619.476 307.189,612.643 314,605.5C 313.791,603.054 312.958,600.721 311.5,598.5C 307.787,595.116 304.121,591.783 300.5,588.5C 299.833,587.167 298.833,586.167 297.5,585.5C 293.19,581.716 288.357,577.05 283,571.5C 279.407,565.218 276.907,558.551 275.5,551.5C 276.983,545.501 278.649,539.501 280.5,533.5C 284.035,528.836 287.869,524.503 292,520.5C 292.333,521.167 292.667,521.833 293,522.5C 294.491,520.996 296.324,520.163 298.5,520C 324.209,519.824 349.876,519.324 375.5,518.5C 392.046,519.416 408.546,519.416 425,518.5C 429,519.167 433,519.833 437,520.5C 437.772,520.355 438.439,520.022 439,519.5C 442.624,523.158 446.291,526.825 450,530.5C 452.027,534.368 453.694,538.368 455,542.5C 455.011,558.163 454.678,573.829 454,589.5C 452.383,616.384 450.883,643.384 449.5,670.5C 442.722,685.062 431.389,690.562 415.5,687C 408.06,682.53 400.726,678.03 393.5,673.5C 389.38,670.59 385.046,667.757 380.5,665C 379.056,664.219 377.723,664.386 376.5,665.5C 368.597,674.594 360.264,682.428 351.5,689C 334.201,706.966 316.534,724.633 298.5,742C 291.668,747.536 285.168,753.37 279,759.5C 278.333,760.833 277.667,762.167 277,763.5C 276.667,763.167 276.333,762.833 276,762.5C 258.448,779.053 241.281,795.886 224.5,813C 223.167,813.667 221.833,814.333 220.5,815C 215.4,823.468 207.9,827.968 198,828.5C 188.36,826.953 179.36,823.619 171,818.5C 170.667,818.833 170.333,819.167 170,819.5C 168.647,818.315 167.48,816.981 166.5,815.5C 165.914,815.709 165.414,816.043 165,816.5C 160.048,811.946 154.548,808.279 148.5,805.5C 145.575,804.11 143.075,802.11 141,799.5C 140.536,800.094 140.369,800.761 140.5,801.5C 138.767,800.992 138.434,800.159 139.5,799C 136.888,797.721 134.555,796.055 132.5,794C 131.551,793.383 130.718,793.549 130,794.5C 129.14,790.973 126.973,788.807 123.5,788C 119.014,783.683 114.347,779.516 109.5,775.5C 108.745,773.534 107.579,773.2 106,774.5C 105.667,773.5 105.333,772.5 105,771.5C 98.662,765.599 92.4953,759.599 86.5,753.5C 78.1073,743.45 69.7739,733.45 61.5,723.5C 55.376,715.851 50.2094,707.518 46,698.5C 44.5979,696.367 42.7646,694.7 40.5,693.5C 41.4279,692.232 41.5946,690.899 41,689.5C 36.4028,683.326 32.5694,677.159 29.5,671C 30.0219,670.439 30.3552,669.772 30.5,669C 28.9837,665.621 26.9837,662.621 24.5,660C 25.5171,658.951 25.6838,657.784 25,656.5C 24.6667,657.167 24.3333,657.833 24,658.5C 23.7067,654.132 22.54,650.132 20.5,646.5C 12.7052,622.026 7.53857,597.026 5,571.5C 3.99026,568.285 2.82359,565.118 1.5,562C 2.90504,558.646 3.57171,555.146 3.5,551.5C 2.91971,548.019 2.91971,544.685 3.5,541.5C 3.29081,540.006 2.62414,538.839 1.5,538C 2,537.5 2.5,537 3,536.5C 3.36377,532.133 3.53043,527.966 3.5,524C 2.57203,523.612 1.90536,522.945 1.5,522C 2.81406,519.869 3.98072,517.703 5,515.5C 6.36007,495.332 9.86007,475.665 15.5,456.5C 18.5477,448.705 21.3811,440.705 24,432.5C 25.9872,428.177 28.1539,424.011 30.5,420C 27.9719,417.925 28.1386,417.092 31,417.5C 33.2408,412.053 35.7408,406.72 38.5,401.5C 41.028,400.483 41.028,399.316 38.5,398C 39.2529,396.513 40.0862,396.346 41,397.5C 50.3937,380.963 61.5603,364.629 74.5,348.5C 76.4828,347.098 78.1495,345.264 79.5,343C 78.3463,342.086 78.513,341.253 80,340.5C 80.3333,340.833 80.6667,341.167 81,341.5C 85.4794,338.024 88.8127,333.691 91,328.5C 91.3333,328.833 91.6667,329.167 92,329.5C 96.1328,326.369 99.9662,322.869 103.5,319C 103.167,318.667 102.833,318.333 102.5,318C 104.246,317.529 105.913,316.862 107.5,316C 110.19,313.107 113.19,310.607 116.5,308.5C 118.837,306.579 120.671,304.246 122,301.5C 122.333,302.167 122.667,302.833 123,303.5C 126.967,299.526 131.467,296.359 136.5,294C 138.394,292.921 138.727,291.587 137.5,290C 138.449,289.383 139.282,289.549 140,290.5C 140.483,289.552 140.649,288.552 140.5,287.5C 145.612,288.45 149.445,286.45 152,281.5C 152.333,282.167 152.667,282.833 153,283.5C 154.729,283.026 155.895,282.026 156.5,280.5C 157.712,279.77 158.712,278.77 159.5,277.5C 160.167,277.833 160.833,278.167 161.5,278.5C 172.662,271.669 184.496,266.335 197,262.5C 199.06,261.41 200.393,259.743 201,257.5C 201.333,258.5 201.667,259.5 202,260.5C 212.314,256.631 222.814,253.464 233.5,251C 290.292,239.555 346.292,243.055 401.5,261.5 Z M 403.5,260.5 C 403.289,262.424 402.623,262.757 401.5,261.5C 402.167,261.167 402.833,260.833 403.5,260.5 Z"/></g>
<g><path style="opacity:0.004" fill="#000000" d="M 442.5,245.5 C 443.833,246.167 443.833,246.167 442.5,245.5 Z"/></g>
<g><path style="opacity:0.004" fill="#000000" d="M 240.5,247.5 C 241.833,248.167 241.833,248.167 240.5,247.5 Z"/></g>
<g><path style="opacity:0.004" fill="#000000" d="M 356.5,247.5 C 357.833,248.167 357.833,248.167 356.5,247.5 Z"/></g>
<g><path style="opacity:0.004" fill="#000000" d="M 378.5,252.5 C 379.833,253.167 379.833,253.167 378.5,252.5 Z"/></g>
<g><path style="opacity:0.004" fill="#000000" d="M 109.5,254.5 C 110.833,255.167 110.833,255.167 109.5,254.5 Z"/></g>
<g><path style="opacity:0.004" fill="#000000" d="M 406.5,257.5 C 407.833,258.167 407.833,258.167 406.5,257.5 Z"/></g>
<g><path style="opacity:0.004" fill="#000000" d="M 191.5,261.5 C 192.833,262.167 192.833,262.167 191.5,261.5 Z"/></g>
<g><path style="opacity:0.004" fill="#000000" d="M 170.5,267.5 C 171.525,267.897 171.692,268.563 171,269.5C 170.536,268.906 170.369,268.239 170.5,267.5 Z"/></g>
<g><path style="opacity:0.004" fill="#000000" d="M 156.5,280.5 C 155.475,280.103 155.308,279.437 156,278.5C 156.464,279.094 156.631,279.761 156.5,280.5 Z"/></g>
<g><path style="opacity:0.971" fill="#000000" d="M 776.5,292.5 C 840.915,290.963 876.082,322.297 882,386.5C 885.42,421.079 875.253,450.746 851.5,475.5C 861.215,487.214 870.549,499.214 879.5,511.5C 866.513,512.666 853.513,512.833 840.5,512C 836,506.167 831.5,500.333 827,494.5C 826.196,493.196 825.029,492.529 823.5,492.5C 788.704,503.867 756.704,498.7 727.5,477C 704.357,454.688 693.691,427.355 695.5,395C 693.732,361.282 705.398,333.282 730.5,311C 744.291,300.796 759.625,294.63 776.5,292.5 Z M 781.5,329.5 C 805.296,327.642 822.463,337.309 833,358.5C 841.279,382.036 841.612,405.703 834,429.5C 831.88,434.242 829.38,438.742 826.5,443C 825.551,443.617 824.718,443.451 824,442.5C 820.167,437.333 816.333,432.167 812.5,427C 800.167,426.333 787.833,426.333 775.5,427C 783.592,437.848 791.925,448.515 800.5,459C 774.484,464.408 755.651,455.242 744,431.5C 734.251,404.217 735.585,377.551 748,351.5C 756.159,339.509 767.325,332.176 781.5,329.5 Z"/></g>
<g><path style="opacity:0.969" fill="#000000" d="M 913.5,294.5 C 934.844,294.167 956.177,294.5 977.5,295.5C 989.296,328.053 1000.8,360.72 1012,393.5C 1016.47,410.391 1020.47,427.391 1024,444.5C 1028.35,425.775 1033.01,407.108 1038,388.5C 1048.74,357.44 1059.58,326.44 1070.5,295.5C 1091.82,294.5 1113.16,294.167 1134.5,294.5C 1134.5,361.5 1134.5,428.5 1134.5,495.5C 1120.5,495.5 1106.5,495.5 1092.5,495.5C 1092.48,443.16 1092.64,390.827 1093,338.5C 1078.63,391.612 1061.46,443.779 1041.5,495C 1029.59,495.821 1017.76,495.654 1006,494.5C 995.197,463.757 984.197,433.091 973,402.5C 966.595,381.951 960.595,361.284 955,340.5C 955.291,392.162 955.458,443.828 955.5,495.5C 941.5,495.5 927.5,495.5 913.5,495.5C 913.5,428.5 913.5,361.5 913.5,294.5 Z"/></g>
<g><path style="opacity:0.972" fill="#000000" d="M 1226.5,294.5 C 1244.74,294.174 1262.91,294.508 1281,295.5C 1304.47,362.089 1327.64,428.756 1350.5,495.5C 1335.16,495.667 1319.83,495.5 1304.5,495C 1299,479.998 1294,464.832 1289.5,449.5C 1265.83,449.5 1242.17,449.5 1218.5,449.5C 1213.63,464.773 1208.96,480.106 1204.5,495.5C 1189.17,495.5 1173.83,495.5 1158.5,495.5C 1180.77,428.365 1203.43,361.365 1226.5,294.5 Z M 1252.5,330.5 C 1260.5,359.159 1268.84,387.825 1277.5,416.5C 1261.49,416.833 1245.49,416.499 1229.5,415.5C 1238.88,387.628 1246.55,359.295 1252.5,330.5 Z"/></g>
<g><path style="opacity:0.968" fill="#000000" d="M 1374.5,294.5 C 1388.5,294.5 1402.5,294.5 1416.5,294.5C 1416.54,327.512 1416.37,360.512 1416,393.5C 1420.84,385.156 1426.17,377.156 1432,369.5C 1452.83,344.667 1473.67,319.833 1494.5,295C 1511.51,294.167 1528.51,294.334 1545.5,295.5C 1521.02,324.48 1496.35,353.314 1471.5,382C 1497.03,419.363 1522.36,456.863 1547.5,494.5C 1531.18,495.666 1514.84,495.833 1498.5,495C 1479.96,466.747 1461.29,438.581 1442.5,410.5C 1433.84,419.323 1425.34,428.323 1417,437.5C 1416.5,456.83 1416.33,476.164 1416.5,495.5C 1402.5,495.5 1388.5,495.5 1374.5,495.5C 1374.5,428.5 1374.5,361.5 1374.5,294.5 Z"/></g>
<g><path style="opacity:0.004" fill="#000000" d="M 313.5,337.5 C 313.897,336.475 314.563,336.308 315.5,337C 314.906,337.464 314.239,337.631 313.5,337.5 Z"/></g>
<g><path style="opacity:0.004" fill="#000000" d="M 346.5,341.5 C 347.833,342.167 347.833,342.167 346.5,341.5 Z"/></g>
<g><path style="opacity:0.005" fill="#000000" d="M 241.5,342.5 C 244.001,342.511 244.168,343.178 242,344.5C 241.536,343.906 241.369,343.239 241.5,342.5 Z"/></g>
<g><path style="opacity:0.004" fill="#000000" d="M 353.5,342.5 C 354.833,343.167 354.833,343.167 353.5,342.5 Z"/></g>
<g><path style="opacity:0.004" fill="#000000" d="M 234.5,345.5 C 235.833,346.167 235.833,346.167 234.5,345.5 Z"/></g>
<g><path style="opacity:0.004" fill="#000000" d="M 74.5,348.5 C 73.7611,348.631 73.0944,348.464 72.5,348C 73.4368,347.308 74.1034,347.475 74.5,348.5 Z"/></g>
<g><path style="opacity:0.004" fill="#000000" d="M 527.5,347.5 C 528.833,348.167 528.833,348.167 527.5,347.5 Z"/></g>
<g><path style="opacity:0.004" fill="#000000" d="M 547.5,373.5 C 548.833,374.167 548.833,374.167 547.5,373.5 Z"/></g>
<g><path style="opacity:0.004" fill="#000000" d="M 50.5,377.5 C 51.8333,378.167 51.8333,378.167 50.5,377.5 Z"/></g>
<g><path style="opacity:0.004" fill="#000000" d="M 557.5,387.5 C 558.833,388.167 558.833,388.167 557.5,387.5 Z"/></g>
<g><path style="opacity:0.004" fill="#000000" d="M 158.5,391.5 C 159.833,392.167 159.833,392.167 158.5,391.5 Z"/></g>
<g><path style="opacity:0.004" fill="#000000" d="M 577.5,427.5 C 578.833,428.167 578.833,428.167 577.5,427.5 Z"/></g>
<g><path style="opacity:0.004" fill="#000000" d="M 19.5,429.5 C 20.525,429.897 20.6917,430.563 20,431.5C 19.5357,430.906 19.369,430.239 19.5,429.5 Z"/></g>
<g><path style="opacity:0.004" fill="#000000" d="M 479.5,438.5 C 478.833,437.167 478.833,437.167 479.5,438.5 Z"/></g>
<g><path style="opacity:0.004" fill="#000000" d="M 480.5,442.5 C 479.833,443.167 479.833,443.167 480.5,442.5 Z"/></g>
<g><path style="opacity:0.004" fill="#000000" d="M 478.5,444.5 C 479.833,445.167 479.833,445.167 478.5,444.5 Z"/></g>
<g><path style="opacity:0.004" fill="#000000" d="M 15.5,456.5 C 14.475,456.103 14.3083,455.437 15,454.5C 15.4643,455.094 15.631,455.761 15.5,456.5 Z"/></g>
<g><path style="opacity:0.004" fill="#000000" d="M 13.5,458.5 C 14.8333,459.167 14.8333,459.167 13.5,458.5 Z"/></g>
<g><path style="opacity:0.004" fill="#000000" d="M 489.5,458.5 C 490.833,459.167 490.833,459.167 489.5,458.5 Z"/></g>
<g><path style="opacity:0.004" fill="#000000" d="M 488.5,468.5 C 489.833,469.167 489.833,469.167 488.5,468.5 Z"/></g>
<g><path style="opacity:0.005" fill="#000000" d="M 503.5,491.5 C 503.5,492.5 503.5,493.5 503.5,494.5C 500.833,493.5 500.833,492.5 503.5,491.5 Z"/></g>
<g><path style="opacity:0.004" fill="#000000" d="M 4.5,499.5 C 5.52502,499.897 5.69169,500.563 5,501.5C 4.53566,500.906 4.36899,500.239 4.5,499.5 Z"/></g>
<g><path style="opacity:0.004" fill="#000000" d="M 504.5,503.5 C 505.833,504.167 505.833,504.167 504.5,503.5 Z"/></g>
<g><path style="opacity:0.004" fill="#000000" d="M 298.5,518.5 C 298.897,517.475 299.563,517.308 300.5,518C 299.906,518.464 299.239,518.631 298.5,518.5 Z"/></g>
<g><path style="opacity:0.943" fill="#000000" d="M 727.5,535.5 C 759.53,533.694 776.197,548.861 777.5,581C 777.499,594.2 773.165,605.7 764.5,615.5C 767.926,621.095 771.926,626.262 776.5,631C 770.5,631.667 764.5,631.667 758.5,631C 756.126,628.961 754.126,626.628 752.5,624C 751.833,623.833 751.167,623.667 750.5,623.5C 728.793,629.658 711.959,623.325 700,604.5C 694.829,590.403 694.162,576.07 698,561.5C 703.621,548.045 713.455,539.378 727.5,535.5 Z M 735.5,551.5 C 747.097,552.214 754.264,558.214 757,569.5C 759.872,580.93 758.206,591.597 752,601.5C 750.167,599 748.333,596.5 746.5,594C 741.136,593.171 735.802,593.337 730.5,594.5C 734.026,598.859 737.359,603.359 740.5,608C 728.264,609.967 720.097,605.134 716,593.5C 714,584.833 714,576.167 716,567.5C 719.131,557.853 725.631,552.52 735.5,551.5 Z"/></g>
<g><path style="opacity:0.936" fill="#000000" d="M 1134.5,535.5 C 1149.23,532.967 1161.73,536.967 1172,547.5C 1174.9,552.088 1176.4,557.088 1176.5,562.5C 1170.46,562.829 1164.46,562.496 1158.5,561.5C 1156.2,554.218 1151.2,550.884 1143.5,551.5C 1135.95,550.562 1131.29,553.729 1129.5,561C 1129.8,563.923 1131.13,566.257 1133.5,568C 1144.67,571.207 1155.67,574.874 1166.5,579C 1178.45,588.929 1180.62,600.763 1173,614.5C 1164.72,622.704 1154.72,626.371 1143,625.5C 1129.43,626.433 1118.76,621.433 1111,610.5C 1109.03,606.037 1108.19,601.371 1108.5,596.5C 1114.5,596.5 1120.5,596.5 1126.5,596.5C 1127.45,602.956 1131.12,607.123 1137.5,609C 1142.57,609.751 1147.57,609.418 1152.5,608C 1159.1,604.086 1160.1,599.086 1155.5,593C 1145.33,589.207 1135,585.874 1124.5,583C 1110.33,574.829 1106.83,563.329 1114,548.5C 1119.33,541.754 1126.16,537.421 1134.5,535.5 Z"/></g>
<g><path style="opacity:0.933" fill="#000000" d="M 1646.5,536.5 C 1653.17,536.334 1659.84,536.5 1666.5,537C 1679.54,556.249 1691.71,576.082 1703,596.5C 1703.5,576.503 1703.67,556.503 1703.5,536.5C 1709.83,536.5 1716.17,536.5 1722.5,536.5C 1722.5,565.833 1722.5,595.167 1722.5,624.5C 1715.25,624.813 1708.08,624.48 1701,623.5C 1688.2,604.024 1676.2,584.024 1665,563.5C 1665.3,583.82 1665.47,604.154 1665.5,624.5C 1658.91,624.811 1652.41,624.478 1646,623.5C 1645.18,594.428 1645.34,565.428 1646.5,536.5 Z"/></g>
<g><path style="opacity:0.954" fill="#000000" d="M 1883.5,536.5 C 1889.5,536.5 1895.5,536.5 1901.5,536.5C 1901.5,548.167 1901.5,559.833 1901.5,571.5C 1913.83,571.5 1926.17,571.5 1938.5,571.5C 1938.5,559.833 1938.5,548.167 1938.5,536.5C 1944.83,536.5 1951.17,536.5 1957.5,536.5C 1957.5,565.833 1957.5,595.167 1957.5,624.5C 1951.17,624.5 1944.83,624.5 1938.5,624.5C 1938.5,612.167 1938.5,599.833 1938.5,587.5C 1926.17,587.5 1913.83,587.5 1901.5,587.5C 1901.5,599.833 1901.5,612.167 1901.5,624.5C 1895.5,624.5 1889.5,624.5 1883.5,624.5C 1883.5,595.167 1883.5,565.833 1883.5,536.5 Z"/></g>
<g><path style="opacity:0.929" fill="#000000" d="M 2133.5,536.5 C 2139.83,536.5 2146.17,536.5 2152.5,536.5C 2152.5,565.833 2152.5,595.167 2152.5,624.5C 2146.17,624.5 2139.83,624.5 2133.5,624.5C 2133.66,621.482 2133.5,618.482 2133,615.5C 2127.38,623.875 2119.55,627.042 2109.5,625C 2100.6,623.105 2094.44,617.938 2091,609.5C 2085.67,594.501 2087,580.168 2095,566.5C 2104.5,556.908 2115.33,555.075 2127.5,561C 2129.71,562.873 2131.54,565.04 2133,567.5C 2133.5,557.172 2133.67,546.839 2133.5,536.5 Z M 2117.5,572.5 C 2125.93,571.629 2131.1,575.295 2133,583.5C 2133.87,589.917 2133.54,596.251 2132,602.5C 2125.35,612.216 2118.02,612.882 2110,604.5C 2105.35,594.19 2106.19,584.357 2112.5,575C 2114.31,574.243 2115.98,573.41 2117.5,572.5 Z"/></g>
<g><path style="opacity:0.948" fill="#000000" d="M 1419.5,542.5 C 1425.5,542.5 1431.5,542.5 1437.5,542.5C 1437.5,547.833 1437.5,553.167 1437.5,558.5C 1441.83,558.5 1446.17,558.5 1450.5,558.5C 1450.5,563.167 1450.5,567.833 1450.5,572.5C 1446.17,572.5 1441.83,572.5 1437.5,572.5C 1437.33,583.505 1437.5,594.505 1438,605.5C 1438.27,607.329 1439.11,608.829 1440.5,610C 1443.23,610.728 1445.9,610.562 1448.5,609.5C 1450.46,614.277 1451.46,619.277 1451.5,624.5C 1442.84,626.516 1434.51,625.683 1426.5,622C 1422.67,619.512 1420.51,616.012 1420,611.5C 1419.5,598.504 1419.33,585.504 1419.5,572.5C 1416.5,572.5 1413.5,572.5 1410.5,572.5C 1410.5,567.833 1410.5,563.167 1410.5,558.5C 1413.5,558.5 1416.5,558.5 1419.5,558.5C 1419.5,553.167 1419.5,547.833 1419.5,542.5 Z"/></g>
<g><path style="opacity:0.956" fill="#000000" d="M 1813.5,542.5 C 1819.5,542.5 1825.5,542.5 1831.5,542.5C 1831.5,547.833 1831.5,553.167 1831.5,558.5C 1835.5,558.5 1839.5,558.5 1843.5,558.5C 1843.5,563.167 1843.5,567.833 1843.5,572.5C 1839.5,572.5 1835.5,572.5 1831.5,572.5C 1831.33,584.171 1831.5,595.838 1832,607.5C 1834.92,610.612 1838.42,611.279 1842.5,609.5C 1844.14,614.373 1845.14,619.373 1845.5,624.5C 1837.34,626.317 1829.34,625.817 1821.5,623C 1817.87,620.362 1815.37,616.862 1814,612.5C 1813.5,599.171 1813.33,585.837 1813.5,572.5C 1810.5,572.5 1807.5,572.5 1804.5,572.5C 1804.5,567.833 1804.5,563.167 1804.5,558.5C 1807.5,558.5 1810.5,558.5 1813.5,558.5C 1813.5,553.167 1813.5,547.833 1813.5,542.5 Z"/></g>
<g><path style="opacity:0.937" fill="#000000" d="M 886.5,557.5 C 913.725,556.058 926.725,569.058 925.5,596.5C 910.5,596.5 895.5,596.5 880.5,596.5C 882.741,610.531 890.408,614.697 903.5,609C 905.359,607.442 906.859,605.609 908,603.5C 913.077,604.815 918.244,605.815 923.5,606.5C 920.926,616.902 914.259,623.068 903.5,625C 872.544,627.038 859.044,612.538 863,581.5C 866.358,568.977 874.191,560.977 886.5,557.5 Z M 889.5,571.5 C 899.188,570.355 905.188,574.521 907.5,584C 898.506,584.5 889.506,584.666 880.5,584.5C 881.52,578.811 884.52,574.477 889.5,571.5 Z"/></g>
<g><path style="opacity:0.936" fill="#000000" d="M 1032.5,557.5 C 1059.73,556.058 1072.73,569.058 1071.5,596.5C 1056.5,596.5 1041.5,596.5 1026.5,596.5C 1028.74,610.531 1036.41,614.697 1049.5,609C 1051.36,607.442 1052.86,605.609 1054,603.5C 1059.08,604.815 1064.24,605.815 1069.5,606.5C 1066.93,616.902 1060.26,623.068 1049.5,625C 1028.86,629.042 1015.36,621.209 1009,601.5C 1005.8,586.424 1009.64,573.591 1020.5,563C 1024.48,560.838 1028.48,559.005 1032.5,557.5 Z M 1035.5,571.5 C 1045.19,570.355 1051.19,574.521 1053.5,584C 1044.51,584.5 1035.51,584.666 1026.5,584.5C 1027.52,578.811 1030.52,574.477 1035.5,571.5 Z"/></g>
<g><path style="opacity:0.927" fill="#000000" d="M 1220.5,557.5 C 1231.23,556.109 1238.4,560.443 1242,570.5C 1249.7,557.857 1260.54,554.357 1274.5,560C 1280.09,563.668 1283.25,568.835 1284,575.5C 1284.5,591.83 1284.67,608.163 1284.5,624.5C 1278.17,624.5 1271.83,624.5 1265.5,624.5C 1265.67,609.163 1265.5,593.83 1265,578.5C 1261.36,573.176 1256.53,571.676 1250.5,574C 1248.19,575.637 1246.69,577.804 1246,580.5C 1245.5,595.163 1245.33,609.83 1245.5,624.5C 1239.5,624.5 1233.5,624.5 1227.5,624.5C 1227.67,609.163 1227.5,593.83 1227,578.5C 1223.38,573.182 1218.54,571.682 1212.5,574C 1210.38,575.731 1208.88,577.898 1208,580.5C 1207.5,595.163 1207.33,609.83 1207.5,624.5C 1201.24,624.81 1195.08,624.476 1189,623.5C 1188.33,602.167 1188.33,580.833 1189,559.5C 1194.74,558.525 1200.57,558.192 1206.5,558.5C 1206.33,561.85 1206.5,565.183 1207,568.5C 1210.24,563.07 1214.74,559.403 1220.5,557.5 Z"/></g>
<g><path style="opacity:0.943" fill="#000000" d="M 1317.5,557.5 C 1329.8,555.614 1340.63,558.614 1350,566.5C 1351.28,568.717 1352.28,571.051 1353,573.5C 1353.5,590.497 1353.67,607.497 1353.5,624.5C 1347.83,624.5 1342.17,624.5 1336.5,624.5C 1336.66,621.813 1336.5,619.146 1336,616.5C 1329.02,624.716 1320.18,627.549 1309.5,625C 1296.92,620.341 1292.42,611.508 1296,598.5C 1298.66,592.508 1303.16,588.675 1309.5,587C 1316.13,585.783 1322.8,584.783 1329.5,584C 1334.45,583.727 1336.28,581.227 1335,576.5C 1334.17,574.333 1332.67,572.833 1330.5,572C 1327.17,571.333 1323.83,571.333 1320.5,572C 1317.27,574.256 1314.1,576.423 1311,578.5C 1306.1,577.768 1301.27,576.768 1296.5,575.5C 1300.47,565.853 1307.47,559.853 1317.5,557.5 Z M 1333.5,594.5 C 1337.62,604.786 1333.96,610.786 1322.5,612.5C 1313.71,612.225 1311.05,608.225 1314.5,600.5C 1315.7,599.469 1317.03,598.635 1318.5,598C 1323.71,597.149 1328.71,595.982 1333.5,594.5 Z"/></g>
<g><path style="opacity:0.916" fill="#000000" d="M 1396.5,557.5 C 1400.44,557.207 1404.27,557.54 1408,558.5C 1408.5,563.823 1408.67,569.156 1408.5,574.5C 1402.14,572.671 1396.14,573.504 1390.5,577C 1388.96,578.579 1387.79,580.413 1387,582.5C 1386.5,596.496 1386.33,610.496 1386.5,624.5C 1380.17,624.5 1373.83,624.5 1367.5,624.5C 1367.5,602.5 1367.5,580.5 1367.5,558.5C 1373.5,558.5 1379.5,558.5 1385.5,558.5C 1385.33,561.85 1385.5,565.183 1386,568.5C 1388.02,563.315 1391.52,559.648 1396.5,557.5 Z"/></g>
<g><path style="opacity:0.936" fill="#000000" d="M 1482.5,557.5 C 1509.82,555.987 1522.49,568.821 1520.5,596C 1505.84,596.5 1491.17,596.667 1476.5,596.5C 1478.74,610.531 1486.41,614.697 1499.5,609C 1501.36,607.442 1502.86,605.609 1504,603.5C 1509.08,604.815 1514.24,605.815 1519.5,606.5C 1516.93,616.902 1510.26,623.068 1499.5,625C 1468.1,627.267 1454.6,612.767 1459,581.5C 1462.36,568.977 1470.19,560.977 1482.5,557.5 Z M 1485.5,571.5 C 1495.52,570.326 1501.18,574.659 1502.5,584.5C 1493.83,584.5 1485.17,584.5 1476.5,584.5C 1477.3,578.555 1480.3,574.221 1485.5,571.5 Z"/></g>
<g><path style="opacity:0.955" fill="#000000" d="M 1561.5,557.5 C 1565.17,557.5 1568.83,557.5 1572.5,557.5C 1572.5,563.167 1572.5,568.833 1572.5,574.5C 1564.22,571.986 1557.39,573.986 1552,580.5C 1550.55,595.095 1550.05,609.761 1550.5,624.5C 1544.5,624.5 1538.5,624.5 1532.5,624.5C 1532.5,602.5 1532.5,580.5 1532.5,558.5C 1538.17,558.5 1543.83,558.5 1549.5,558.5C 1549.33,561.85 1549.5,565.183 1550,568.5C 1552.44,563.226 1556.27,559.56 1561.5,557.5 Z"/></g>
<g><path style="opacity:0.943" fill="#000000" d="M 1759.5,557.5 C 1784.43,555.596 1797.76,567.096 1799.5,592C 1797.31,616.528 1783.97,627.528 1759.5,625C 1746,622.167 1737.83,614 1735,600.5C 1732.07,586.352 1735.57,574.186 1745.5,564C 1749.88,560.975 1754.54,558.808 1759.5,557.5 Z M 1762.5,572.5 C 1772.93,571.427 1778.76,576.094 1780,586.5C 1780.85,592.339 1780.18,598.005 1778,603.5C 1773.51,610.549 1767.35,612.383 1759.5,609C 1756.84,606.331 1755,603.164 1754,599.5C 1753.33,594.167 1753.33,588.833 1754,583.5C 1755.43,578.596 1758.26,574.93 1762.5,572.5 Z"/></g>
<g><path style="opacity:0.943" fill="#000000" d="M 1991.5,557.5 C 2000.96,556.483 2009.96,557.983 2018.5,562C 2022.67,564.851 2025.51,568.684 2027,573.5C 2027.5,590.497 2027.67,607.497 2027.5,624.5C 2021.83,624.5 2016.17,624.5 2010.5,624.5C 2010.66,621.813 2010.5,619.146 2010,616.5C 2002.98,624.729 1994.14,627.563 1983.5,625C 1970.92,620.349 1966.42,611.516 1970,598.5C 1972.66,592.508 1977.16,588.675 1983.5,587C 1990.13,585.783 1996.8,584.783 2003.5,584C 2009.18,582.798 2010.68,579.632 2008,574.5C 2007.1,573.299 2005.93,572.465 2004.5,572C 2001.17,571.333 1997.83,571.333 1994.5,572C 1990.97,573.899 1987.81,576.065 1985,578.5C 1980.1,577.768 1975.27,576.768 1970.5,575.5C 1974.45,565.881 1981.45,559.881 1991.5,557.5 Z M 2007.5,594.5 C 2011.6,604.803 2007.94,610.803 1996.5,612.5C 1987.58,612.153 1984.92,607.986 1988.5,600C 1994.77,597.571 2001.11,595.738 2007.5,594.5 Z"/></g>
<g><path style="opacity:0.924" fill="#000000" d="M 2070.5,557.5 C 2074.17,557.5 2077.83,557.5 2081.5,557.5C 2081.5,563.167 2081.5,568.833 2081.5,574.5C 2075.48,572.765 2069.81,573.599 2064.5,577C 2062.96,578.579 2061.79,580.413 2061,582.5C 2060.5,596.496 2060.33,610.496 2060.5,624.5C 2054.17,624.5 2047.83,624.5 2041.5,624.5C 2041.5,602.5 2041.5,580.5 2041.5,558.5C 2047.5,558.5 2053.5,558.5 2059.5,558.5C 2059.33,561.85 2059.5,565.183 2060,568.5C 2061.08,566.004 2062.41,563.67 2064,561.5C 2066.31,560.267 2068.48,558.933 2070.5,557.5 Z"/></g>
<g><path style="opacity:0.934" fill="#000000" d="M 2187.5,557.5 C 2214.75,556.088 2227.75,569.088 2226.5,596.5C 2211.5,596.333 2196.5,596.5 2181.5,597C 2183.28,608.562 2189.95,613.229 2201.5,611C 2204.97,609.36 2207.64,606.86 2209.5,603.5C 2214.86,604.706 2220.2,606.039 2225.5,607.5C 2221.98,616.785 2215.31,622.618 2205.5,625C 2175.55,628.052 2161.72,614.552 2164,584.5C 2166.04,570.3 2173.88,561.3 2187.5,557.5 Z M 2191.5,571.5 C 2201.5,570.318 2207.16,574.652 2208.5,584.5C 2199.83,584.5 2191.17,584.5 2182.5,584.5C 2182.8,578.223 2185.8,573.89 2191.5,571.5 Z"/></g>
<g><path style="opacity:0.923" fill="#000000" d="M 2266.5,557.5 C 2270.17,557.5 2273.83,557.5 2277.5,557.5C 2277.5,563.167 2277.5,568.833 2277.5,574.5C 2269.96,572.342 2263.46,574.009 2258,579.5C 2256.55,594.428 2256.05,609.428 2256.5,624.5C 2250.17,624.5 2243.83,624.5 2237.5,624.5C 2237.5,602.5 2237.5,580.5 2237.5,558.5C 2243.5,558.5 2249.5,558.5 2255.5,558.5C 2255.34,561.518 2255.5,564.518 2256,567.5C 2258.11,562.557 2261.61,559.224 2266.5,557.5 Z"/></g>
<g><path style="opacity:0.959" fill="#000000" d="M 790.5,558.5 C 796.5,558.5 802.5,558.5 808.5,558.5C 808.333,572.504 808.5,586.504 809,600.5C 811.979,609.37 817.812,611.87 826.5,608C 829.754,605.658 831.588,602.491 832,598.5C 832.5,585.171 832.667,571.837 832.5,558.5C 838.5,558.5 844.5,558.5 850.5,558.5C 850.5,580.5 850.5,602.5 850.5,624.5C 844.833,624.5 839.167,624.5 833.5,624.5C 833.666,620.486 833.499,616.486 833,612.5C 825.158,625.505 814.325,628.672 800.5,622C 795.491,618.822 792.324,614.322 791,608.5C 790.5,591.837 790.333,575.17 790.5,558.5 Z"/></g>
<g><path style="opacity:0.96" fill="#000000" d="M 936.5,558.5 C 942.5,558.5 948.5,558.5 954.5,558.5C 954.333,572.837 954.5,587.171 955,601.5C 957.834,608.666 963.001,611.166 970.5,609C 975.073,607.032 977.573,603.532 978,598.5C 978.5,585.171 978.667,571.837 978.5,558.5C 984.5,558.5 990.5,558.5 996.5,558.5C 996.5,580.5 996.5,602.5 996.5,624.5C 990.833,624.5 985.167,624.5 979.5,624.5C 979.666,620.486 979.499,616.486 979,612.5C 972.733,624.118 963.233,627.951 950.5,624C 943.137,621.305 938.637,616.138 937,608.5C 936.5,591.837 936.333,575.17 936.5,558.5 Z"/></g>
<g><path style="opacity:0.004" fill="#000000" d="M 508.5,559.5 C 509.833,560.167 509.833,560.167 508.5,559.5 Z"/></g>
<g><path style="opacity:0.004" fill="#000000" d="M 297.5,585.5 C 297.631,586.239 297.464,586.906 297,587.5C 296.308,586.563 296.475,585.897 297.5,585.5 Z"/></g>
<g><path style="opacity:0.004" fill="#000000" d="M 300.5,588.5 C 300.103,589.525 299.437,589.692 298.5,589C 299.094,588.536 299.761,588.369 300.5,588.5 Z"/></g>
<g><path style="opacity:0.906" fill="#000000" d="M 2309.5,610.5 C 2309.5,613.5 2309.5,616.5 2309.5,619.5C 2304.1,626.612 2297.93,627.279 2291,621.5C 2287.23,614.151 2289.06,608.651 2296.5,605C 2302.03,604.226 2306.36,606.059 2309.5,610.5 Z"/></g>
<g><path style="opacity:0.909" fill="#000000" d="M 1585.5,610.5 C 1591.5,610.5 1597.5,610.5 1603.5,610.5C 1600.78,622.654 1597.45,634.654 1593.5,646.5C 1589.22,647.492 1584.88,647.826 1580.5,647.5C 1581.92,635.128 1583.59,622.795 1585.5,610.5 Z"/></g>
<g><path style="opacity:0.004" fill="#000000" d="M 295.5,618.5 C 296.833,619.167 296.833,619.167 295.5,618.5 Z"/></g>
<g><path style="opacity:0.004" fill="#000000" d="M 9.5,628.5 C 10.8333,629.167 10.8333,629.167 9.5,628.5 Z"/></g>
<g><path style="opacity:0.004" fill="#000000" d="M 283.5,630.5 C 283.897,629.475 284.563,629.308 285.5,630C 284.906,630.464 284.239,630.631 283.5,630.5 Z"/></g>
<g><path style="opacity:0.008" fill="#000000" d="M 271.5,636.5 C 272.525,636.897 272.692,637.563 272,638.5C 271.536,637.906 271.369,637.239 271.5,636.5 Z"/></g>
<g><path style="opacity:0.004" fill="#000000" d="M 452.5,636.5 C 453.525,636.897 453.692,637.563 453,638.5C 452.536,637.906 452.369,637.239 452.5,636.5 Z"/></g>
<g><path style="opacity:0.004" fill="#000000" d="M 20.5,646.5 C 20.631,647.239 20.4643,647.906 20,648.5C 19.3083,647.563 19.475,646.897 20.5,646.5 Z"/></g>
<g><path style="opacity:0.004" fill="#000000" d="M 262.5,647.5 C 264.983,647.73 265.483,648.397 264,649.5C 262.97,649.164 262.47,648.497 262.5,647.5 Z"/></g>
<g><path style="opacity:0.004" fill="#000000" d="M 255.5,657.5 C 256.773,658.077 256.773,658.743 255.5,659.5C 254.537,659.03 254.537,658.363 255.5,657.5 Z"/></g>
<g><path style="opacity:0.004" fill="#000000" d="M 25.5,663.5 C 26.8333,664.167 26.8333,664.167 25.5,663.5 Z"/></g>
<g><path style="opacity:0.004" fill="#000000" d="M 393.5,673.5 C 392.833,674.167 392.833,674.167 393.5,673.5 Z"/></g>
<g><path style="opacity:0.004" fill="#000000" d="M 29.5,677.5 C 30.525,677.897 30.6917,678.563 30,679.5C 29.5357,678.906 29.369,678.239 29.5,677.5 Z"/></g>
<g><path style="opacity:0.004" fill="#000000" d="M 563.5,684.5 C 564.833,685.167 564.833,685.167 563.5,684.5 Z"/></g>
<g><path style="opacity:0.004" fill="#000000" d="M 437.5,685.5 C 438.833,686.167 438.833,686.167 437.5,685.5 Z"/></g>
<g><path style="opacity:0.004" fill="#000000" d="M 220.5,686.5 C 221.525,686.897 221.692,687.563 221,688.5C 220.536,687.906 220.369,687.239 220.5,686.5 Z"/></g>
<g><path style="opacity:0.004" fill="#000000" d="M 413.5,718.5 C 414.833,719.167 414.833,719.167 413.5,718.5 Z"/></g>
<g><path style="opacity:0.004" fill="#000000" d="M 61.5,723.5 C 60.8333,724.167 60.8333,724.167 61.5,723.5 Z"/></g>
<g><path style="opacity:0.004" fill="#000000" d="M 86.5,753.5 C 85.8333,754.167 85.8333,754.167 86.5,753.5 Z"/></g>
<g><path style="opacity:0.004" fill="#000000" d="M 378.5,760.5 C 379.833,761.167 379.833,761.167 378.5,760.5 Z"/></g>
<g><path style="opacity:0.004" fill="#000000" d="M 103.5,774.5 C 104.833,775.167 104.833,775.167 103.5,774.5 Z"/></g>
<g><path style="opacity:0.004" fill="#000000" d="M 109.5,775.5 C 108.833,776.167 108.833,776.167 109.5,775.5 Z"/></g>
<g><path style="opacity:0.004" fill="#000000" d="M 520.5,781.5 C 520.897,780.475 521.563,780.308 522.5,781C 521.906,781.464 521.239,781.631 520.5,781.5 Z"/></g>
<g><path style="opacity:0.004" fill="#000000" d="M 419.5,799.5 C 418.833,800.167 418.833,800.167 419.5,799.5 Z"/></g>
<g><path style="opacity:0.004" fill="#000000" d="M 140.5,801.5 C 141.833,802.5 141.833,803.5 140.5,804.5C 140.5,803.5 140.5,802.5 140.5,801.5 Z"/></g>
<g><path style="opacity:0.004" fill="#000000" d="M 140.5,804.5 C 140.5,804.833 140.5,805.167 140.5,805.5C 139.83,805.019 139.83,804.685 140.5,804.5 Z"/></g>
<g><path style="opacity:0.004" fill="#000000" d="M 140.5,805.5 C 141.833,806.167 141.833,806.167 140.5,805.5 Z"/></g>
<g><path style="opacity:0.004" fill="#000000" d="M 148.5,805.5 C 148.103,806.525 147.437,806.692 146.5,806C 147.094,805.536 147.761,805.369 148.5,805.5 Z"/></g>
<g><path style="opacity:0.004" fill="#000000" d="M 160.5,814.5 C 161.833,815.167 161.833,815.167 160.5,814.5 Z"/></g>
<g><path style="opacity:0.004" fill="#000000" d="M 174.5,821.5 C 175.833,822.167 175.833,822.167 174.5,821.5 Z"/></g>
<g><path style="opacity:0.004" fill="#000000" d="M 482.5,860.5 C 481.833,861.167 481.833,861.167 482.5,860.5 Z"/></g>
<g><path style="opacity:0.004" fill="#000000" d="M 520.5,897.5 C 519.833,898.167 519.833,898.167 520.5,897.5 Z"/></g>
</svg>
