<?xml version="1.0" encoding="UTF-8"?>
<!DOCTYPE svg PUBLIC "-//W3C//DTD SVG 1.1//EN" "http://www.w3.org/Graphics/SVG/1.1/DTD/svg11.dtd">
<svg xmlns="http://www.w3.org/2000/svg" version="1.1" width="600px" height="916px" style="shape-rendering:geometricPrecision; text-rendering:geometricPrecision; image-rendering:optimizeQuality; fill-rule:evenodd; clip-rule:evenodd" xmlns:xlink="http://www.w3.org/1999/xlink">
<g><path style="opacity:0.996" fill="#f97316" d="M 293.5,-0.5 C 295.833,-0.5 298.167,-0.5 300.5,-0.5C 309.698,3.27696 319.031,6.94362 328.5,10.5C 330.715,12.5737 333.215,12.9071 336,11.5C 336.49,12.7932 336.657,14.1266 336.5,15.5C 338.927,15.523 341.26,16.023 343.5,17C 356.759,23.1367 370.092,28.9701 383.5,34.5C 386.606,36.1241 389.939,37.4575 393.5,38.5C 394.554,38.3201 395.554,37.9867 396.5,37.5C 397.604,38.6313 397.271,39.4646 395.5,40C 408.145,44.765 420.478,50.0983 432.5,56C 436.167,57 439.833,58 443.5,59C 442.833,59.3333 442.167,59.6667 441.5,60C 449.98,62.495 458.146,65.6616 466,69.5C 466.333,69.1667 466.667,68.8333 467,68.5C 467.483,69.448 467.649,70.448 467.5,71.5C 488.302,78.7166 508.635,87.2166 528.5,97C 548.531,104.643 569.198,113.31 590.5,123C 592.336,126.256 595.003,128.589 598.5,130C 597.978,130.561 597.645,131.228 597.5,132C 598.05,135.324 598.717,138.491 599.5,141.5C 599.5,143.833 599.5,146.167 599.5,148.5C 598.167,149.5 598.167,150.5 599.5,151.5C 599.5,151.833 599.5,152.167 599.5,152.5C 598.167,161.5 598.167,170.5 599.5,179.5C 599.5,179.833 599.5,180.167 599.5,180.5C 598.167,180.833 598.167,181.167 599.5,181.5C 599.5,182.167 599.5,182.833 599.5,183.5C 598.167,194.5 598.167,205.5 599.5,216.5C 599.5,216.833 599.5,217.167 599.5,217.5C 598.167,218.167 598.167,218.833 599.5,219.5C 599.5,219.833 599.5,220.167 599.5,220.5C 598.167,220.833 598.167,221.167 599.5,221.5C 599.5,221.833 599.5,222.167 599.5,222.5C 598.167,227.167 598.167,231.833 599.5,236.5C 599.5,236.833 599.5,237.167 599.5,237.5C 598.167,243.833 598.167,250.167 599.5,256.5C 599.5,259.167 599.5,261.833 599.5,264.5C 598.167,265.167 598.167,265.833 599.5,266.5C 599.5,266.833 599.5,267.167 599.5,267.5C 598.167,268.833 598.167,270.167 599.5,271.5C 599.5,271.833 599.5,272.167 599.5,272.5C 599.808,280.726 597.142,287.893 591.5,294C 590.167,294.667 588.833,295.333 587.5,296C 588.34,297.666 587.84,297.833 586,296.5C 568.813,303.876 556.146,299.209 548,282.5C 547.682,278.805 547.182,275.138 546.5,271.5C 547.652,238.856 547.819,206.19 547,173.5C 526.594,183.619 506.094,193.619 485.5,203.5C 485.571,217.881 486.904,232.214 489.5,246.5C 487.802,257.178 481.802,261.011 471.5,258C 389.258,210.14 301.591,197.807 208.5,221C 205.577,221.848 203.077,223.348 201,225.5C 200.667,224.833 200.333,224.167 200,223.5C 197.263,224.56 194.43,225.394 191.5,226C 189.287,227.616 186.953,228.783 184.5,229.5C 175.145,232.416 166.145,236.082 157.5,240.5C 146.379,245.71 135.379,251.21 124.5,257C 123.167,257.667 121.833,257.667 120.5,257C 116.811,255.487 113.145,253.987 109.5,252.5C 109.495,249.468 109.162,246.468 108.5,243.5C 110.569,232.464 111.902,221.298 112.5,210C 112.371,208.019 111.704,206.353 110.5,205C 110.957,204.586 111.291,204.086 111.5,203.5C 109.771,202.403 108.104,201.237 106.5,200C 92.3237,193.617 77.9904,187.451 63.5,181.5C 46.2258,173.482 28.0591,165.148 9,156.5C 6.65932,154.831 4.32599,153.164 2,151.5C 1.62638,149.509 0.793048,147.842 -0.5,146.5C -0.5,141.833 -0.5,137.167 -0.5,132.5C 0.350931,130.29 1.68426,128.29 3.5,126.5C 9.1446,121.87 15.1446,118.704 21.5,117C 69.6658,95.2673 118.333,73.9339 167.5,53C 167.93,52.0805 168.264,51.2472 168.5,50.5C 171.2,51.6668 173.867,51.5001 176.5,50C 175.134,47.5615 175.634,47.0615 178,48.5C 182.756,47.6363 186.422,45.3029 189,41.5C 192.041,42.5036 195.041,42.1703 198,40.5C 201.866,37.9837 206.033,36.1504 210.5,35C 211.126,34.2496 211.626,33.4162 212,32.5C 212.333,32.8333 212.667,33.1667 213,33.5C 216.073,32.1416 219.24,30.9749 222.5,30C 221.376,29.7508 220.376,29.2508 219.5,28.5C 227.615,27.5423 235.281,24.8756 242.5,20.5C 258.994,13.7471 275.994,6.74715 293.5,-0.5 Z"/></g>
<g><path style="opacity:0.997" fill="#f97316" d="M 401.5,261.5 C 402.623,262.757 403.289,262.424 403.5,260.5C 405.745,260.541 406.412,261.375 405.5,263C 440.219,276.665 471.552,295.665 499.5,320C 509.147,329.297 518.481,338.797 527.5,348.5C 530.006,353.172 533.673,356.672 538.5,359C 537.833,359.333 537.167,359.667 536.5,360C 540.445,364.865 544.112,369.698 547.5,374.5C 551.371,381.39 555.704,388.057 560.5,394.5C 566.264,405.889 571.931,417.222 577.5,428.5C 580.031,436.258 582.864,443.925 586,451.5C 589.515,463.087 592.515,474.753 595,486.5C 596.918,499.27 598.418,511.936 599.5,524.5C 599.5,535.5 599.5,546.5 599.5,557.5C 598.276,570.38 596.776,583.38 595,596.5C 593.858,598.679 593.025,601.012 592.5,603.5C 593.311,604.216 593.978,605.05 594.5,606C 593.527,606.349 592.694,607.182 592,608.5C 586.308,635.428 576.808,660.762 563.5,684.5C 547.704,714.048 527.537,740.382 503,763.5C 502.517,764.448 502.351,765.448 502.5,766.5C 503.552,766.351 504.552,766.517 505.5,767C 510.395,772.064 515.395,776.897 520.5,781.5C 545.227,806.396 570.394,830.729 596,854.5C 597.486,857.85 598.653,861.184 599.5,864.5C 599.5,866.833 599.5,869.167 599.5,871.5C 598.462,874.429 597.296,877.429 596,880.5C 584.191,892.478 572.358,904.144 560.5,915.5C 553.833,915.5 547.167,915.5 540.5,915.5C 536.753,912.257 533.086,908.757 529.5,905C 528.552,904.517 527.552,904.351 526.5,904.5C 525.29,901.613 523.29,899.28 520.5,897.5C 507.839,885.173 495.173,872.839 482.5,860.5C 465.722,844.469 448.722,827.969 431.5,811C 430.552,810.517 429.552,810.351 428.5,810.5C 426.616,805.946 423.616,802.28 419.5,799.5C 407.066,787.005 394.399,774.672 381.5,762.5C 375.923,751.233 378.59,742.566 389.5,736.5C 390.086,736.709 390.586,737.043 391,737.5C 436.508,713.313 470.841,677.646 494,630.5C 512.853,585.522 516.019,540.188 503.5,494.5C 504.833,493.5 504.833,492.5 503.5,491.5C 502.972,490.279 502.305,489.113 501.5,488C 502.28,486.927 502.113,485.76 501,484.5C 500.667,484.833 500.333,485.167 500,485.5C 498.4,482.891 498.234,480.224 499.5,477.5C 497.514,474.044 496.014,470.378 495,466.5C 493.401,464.944 491.901,463.277 490.5,461.5C 491.589,458.891 491.255,456.391 489.5,454C 487.436,451.482 485.936,448.648 485,445.5C 483.844,446.993 483.01,446.826 482.5,445C 483.943,442.922 483.276,442.089 480.5,442.5C 480.167,441.167 479.833,439.833 479.5,438.5C 480.043,438.44 480.376,438.107 480.5,437.5C 441.067,376.088 385.067,341.921 312.5,335C 232.657,331.979 169.824,362.479 124,426.5C 83.2844,493.733 78.4511,563.567 109.5,636C 127.681,672.016 153.514,701.849 187,725.5C 193.921,718.156 200.921,711.822 208,706.5C 208.635,705.034 209.469,703.7 210.5,702.5C 208.98,699.845 209.48,699.178 212,700.5C 216.775,698.558 219.942,695.225 221.5,690.5C 223.783,690.392 225.783,689.559 227.5,688C 231.362,684.799 234.528,680.966 237,676.5C 237.333,676.833 237.667,677.167 238,677.5C 242.493,672.5 246.993,668.334 251.5,665C 256.383,660.298 260.716,655.798 264.5,651.5C 272.891,645.066 280.725,638.066 288,630.5C 288.492,629.451 288.326,628.451 287.5,627.5C 289.078,626.702 290.744,626.202 292.5,626C 300.022,619.476 307.189,612.643 314,605.5C 313.791,603.054 312.958,600.721 311.5,598.5C 307.787,595.116 304.121,591.783 300.5,588.5C 299.833,587.167 298.833,586.167 297.5,585.5C 293.19,581.716 288.357,577.05 283,571.5C 279.407,565.218 276.907,558.551 275.5,551.5C 276.983,545.501 278.649,539.501 280.5,533.5C 284.035,528.836 287.869,524.503 292,520.5C 292.333,521.167 292.667,521.833 293,522.5C 294.491,520.996 296.324,520.163 298.5,520C 324.209,519.824 349.876,519.324 375.5,518.5C 392.046,519.416 408.546,519.416 425,518.5C 429,519.167 433,519.833 437,520.5C 437.772,520.355 438.439,520.022 439,519.5C 442.624,523.158 446.291,526.825 450,530.5C 452.027,534.368 453.694,538.368 455,542.5C 455.011,558.163 454.678,573.829 454,589.5C 452.383,616.384 450.883,643.384 449.5,670.5C 442.722,685.062 431.389,690.562 415.5,687C 408.06,682.53 400.726,678.03 393.5,673.5C 389.38,670.59 385.046,667.757 380.5,665C 379.056,664.219 377.723,664.386 376.5,665.5C 368.597,674.594 360.264,682.428 351.5,689C 334.201,706.966 316.534,724.633 298.5,742C 291.668,747.536 285.168,753.37 279,759.5C 278.333,760.833 277.667,762.167 277,763.5C 276.667,763.167 276.333,762.833 276,762.5C 258.448,779.053 241.281,795.886 224.5,813C 223.167,813.667 221.833,814.333 220.5,815C 215.4,823.468 207.9,827.968 198,828.5C 188.36,826.953 179.36,823.619 171,818.5C 170.667,818.833 170.333,819.167 170,819.5C 168.647,818.315 167.48,816.981 166.5,815.5C 165.914,815.709 165.414,816.043 165,816.5C 160.048,811.946 154.548,808.279 148.5,805.5C 145.575,804.11 143.075,802.11 141,799.5C 140.536,800.094 140.369,800.761 140.5,801.5C 138.767,800.992 138.434,800.159 139.5,799C 136.888,797.721 134.555,796.055 132.5,794C 131.551,793.383 130.718,793.549 130,794.5C 129.14,790.973 126.973,788.807 123.5,788C 119.014,783.683 114.347,779.516 109.5,775.5C 102.21,768.56 94.5433,761.227 86.5,753.5C 78.1073,743.45 69.7739,733.45 61.5,723.5C 55.376,715.851 50.2094,707.518 46,698.5C 44.5979,696.367 42.7646,694.7 40.5,693.5C 41.4279,692.232 41.5946,690.899 41,689.5C 36.4028,683.326 32.5694,677.159 29.5,671C 30.0219,670.439 30.3552,669.772 30.5,669C 28.9837,665.621 26.9837,662.621 24.5,660C 25.5171,658.951 25.6838,657.784 25,656.5C 24.6667,657.167 24.3333,657.833 24,658.5C 23.7067,654.132 22.54,650.132 20.5,646.5C 12.7052,622.026 7.53857,597.026 5,571.5C 3.83333,567.833 2.66667,564.167 1.5,560.5C 2.48763,557.576 3.1543,554.576 3.5,551.5C 2.91971,548.019 2.91971,544.685 3.5,541.5C 3.29081,540.006 2.62414,538.839 1.5,538C 2,537.5 2.5,537 3,536.5C 3.36377,532.133 3.53043,527.966 3.5,524C 2.57203,523.612 1.90536,522.945 1.5,522C 2.81406,519.869 3.98072,517.703 5,515.5C 6.36007,495.332 9.86007,475.665 15.5,456.5C 18.5477,448.705 21.3811,440.705 24,432.5C 25.9872,428.177 28.1539,424.011 30.5,420C 27.9719,417.925 28.1386,417.092 31,417.5C 33.2408,412.053 35.7408,406.72 38.5,401.5C 41.028,400.483 41.028,399.316 38.5,398C 39.2529,396.513 40.0862,396.346 41,397.5C 50.3937,380.963 61.5603,364.629 74.5,348.5C 76.4828,347.098 78.1495,345.264 79.5,343C 78.3463,342.086 78.513,341.253 80,340.5C 80.3333,340.833 80.6667,341.167 81,341.5C 85.4794,338.024 88.8127,333.691 91,328.5C 91.3333,328.833 91.6667,329.167 92,329.5C 96.1328,326.369 99.9662,322.869 103.5,319C 103.167,318.667 102.833,318.333 102.5,318C 104.246,317.529 105.913,316.862 107.5,316C 110.19,313.107 113.19,310.607 116.5,308.5C 118.837,306.579 120.671,304.246 122,301.5C 122.333,302.167 122.667,302.833 123,303.5C 126.967,299.526 131.467,296.359 136.5,294C 138.394,292.921 138.727,291.587 137.5,290C 138.449,289.383 139.282,289.549 140,290.5C 140.483,289.552 140.649,288.552 140.5,287.5C 145.612,288.45 149.445,286.45 152,281.5C 152.333,282.167 152.667,282.833 153,283.5C 154.729,283.026 155.895,282.026 156.5,280.5C 157.712,279.77 158.712,278.77 159.5,277.5C 160.167,277.833 160.833,278.167 161.5,278.5C 173.217,271.488 185.551,265.821 198.5,261.5C 199.727,260.41 200.56,259.076 201,257.5C 201.333,258.5 201.667,259.5 202,260.5C 212.314,256.631 222.814,253.464 233.5,251C 290.292,239.555 346.292,243.055 401.5,261.5 Z M 403.5,260.5 C 403.289,262.424 402.623,262.757 401.5,261.5C 402.167,261.167 402.833,260.833 403.5,260.5 Z"/></g>
</svg>
